<?xml version="1.0" encoding="utf-8" standalone="no"?>
<!DOCTYPE svg PUBLIC "-//W3C//DTD SVG 1.1//EN" "http://www.w3.org/Graphics/SVG/1.1/DTD/svg11.dtd">
<svg version="1.1" width="360pt" height="360pt" viewBox="0 0 360 360" overflow="visible" xmlns="http://www.w3.org/2000/svg">
  <path d="M159.6299,231.1755 C156.4432,225.0449 152.8887,219.092 149.003,213.3788 L128.5176,182.1385 L121.8598,170.3593 L121.9367,171.2314 L90.87556,121.8344 L123.6523,121.8344 C126.208,128.0357 129.5422,133.9679 133.5109,139.3751 L155.6608,172.6639 C157.868,175.9453 159.8024,179.4271 161.4223,183.0347 L160.8402,177.366 L160.7225,142.4479 C160.811,135.5688 160.4683,128.6708 159.6982,121.8344 L192.4749,121.8344 C195.0307,128.0357 198.3649,133.9679 202.3336,139.3751 L224.4835,172.6639 C226.6907,175.9453 228.625,179.4271 230.245,183.0347 L229.6048,171.8957 L229.6048,142.3199 C229.6902,135.4834 229.3474,128.6283 228.5806,121.8344 L245.0119,121.8344 L244.8832,145.4381 L260.205,145.3144 L260.205,210.562 C260.1634,217.4415 260.5059,224.334 261.2292,231.1755 L228.4525,231.1755 C225.2659,225.0449 221.7113,219.092 217.8257,213.3788 L197.3402,182.1385 L190.6825,170.3593 L191.3226,182.9067 L191.3226,210.6901 C191.2053,217.5261 191.5482,224.3853 192.3469,231.1755 z" stroke="#000000" stroke-width="0" fill="#000000" fill-opacity="1" />
</svg>