<?xml version="1.0" encoding="utf-8" standalone="no"?>
<!DOCTYPE svg PUBLIC "-//W3C//DTD SVG 1.1//EN" "http://www.w3.org/Graphics/SVG/1.1/DTD/svg11.dtd">
<svg version="1.1" width="360pt" height="360pt" viewBox="0 0 360 360" overflow="visible" xmlns="http://www.w3.org/2000/svg">
  <path d="M186.1005,174.8553 L190.0978,174.8257 L190.0978,190.7478 C190.0601,192.4447 190.1453,194.1487 190.352,195.8333 L182.0245,195.8333 C182.2312,194.1487 182.3164,192.4447 182.2787,190.7478 L182.2787,173.7748 C182.342,172.0787 182.2566,170.3707 182.0245,168.6893 L186.1372,168.6893 z" stroke="#000000" stroke-width="0" fill="#000000" fill-opacity="1" />
  <path d="M171.4962,181.3078 C172.0442,182.1224 172.5244,182.9867 172.9265,183.8823 L172.7676,181.1171 L172.7676,173.7748 C172.7888,172.0777 172.7037,170.3759 172.5133,168.6893 L176.6647,168.6893 L176.6425,174.855 L180.3641,174.8325 L180.3641,190.716 C180.3538,192.4239 180.4388,194.1349 180.6184,195.8333 L172.4815,195.8333 C171.6904,194.3114 170.808,192.8336 169.8434,191.4153 L164.7579,183.6598 L163.1051,180.7357 L163.264,183.8505 L163.264,189.7766 L159.5965,189.8037 L159.5607,195.8333 L155.4132,195.8333 C155.6247,194.1386 155.7099,192.4234 155.6675,190.716 L155.6675,173.8066 C155.6895,172.0989 155.6044,170.3864 155.4132,168.6893 L163.5501,168.6893 C164.1845,170.2288 165.0123,171.7014 165.9975,173.0438 z" stroke="#000000" stroke-width="0" fill="#000000" fill-opacity="1" />
  <path d="M146.5308,174.8312 L150.6807,174.855 L150.6573,168.6893 L154.4452,168.6893 C154.2384,170.3739 154.1532,172.0779 154.1909,173.7748 L154.1909,184.4862 C154.395,187.5614 153.1893,190.9201 151.076,193.1634 C150.1478,194.1262 148.9843,194.9019 147.7386,195.3884 C145.7632,196.1291 143.6185,196.512 141.5088,196.5008 C133.1495,196.5008 128.8268,192.4006 128.8268,184.4227 L128.8268,173.7748 C128.8664,172.078 128.7812,170.3737 128.5725,168.6893 L136.7411,168.6893 C136.5232,170.3725 136.4379,172.0782 136.4868,173.7748 L136.4868,184.5498 C136.4868,188.3322 138.0125,189.985 141.477,189.985 C144.9733,189.985 146.5308,188.3004 146.5308,184.518 z" stroke="#000000" stroke-width="0" fill="#000000" fill-opacity="1" />
  <path d="M102.522,195.8333 C101.7309,194.3114 100.8485,192.8336 99.8839,191.4153 L94.79836,183.6598 L93.14556,180.7357 L93.16463,180.9521 L85.45368,168.6893 L93.59055,168.6893 C94.22501,170.2288 95.05273,171.7014 96.03796,173.0438 L101.5367,181.3078 C102.0846,182.1224 102.5648,182.9867 102.967,183.8823 L102.8225,182.4751 L102.7933,173.8066 C102.8152,172.0989 102.7301,170.3864 102.539,168.6893 L110.6758,168.6893 C111.3103,170.2288 112.138,171.7014 113.1233,173.0438 L118.622,181.3078 C119.1699,182.1224 119.6501,182.9867 120.0523,183.8823 L119.8934,181.1171 L119.8934,173.7748 C119.9146,172.0777 119.8295,170.3759 119.6391,168.6893 L123.7182,168.6893 L123.6863,174.5489 L127.4899,174.5182 L127.4899,190.716 C127.4796,192.4239 127.5646,194.1349 127.7442,195.8333 L119.6073,195.8333 C118.8162,194.3114 117.9338,192.8336 116.9692,191.4153 L111.8837,183.6598 L110.2309,180.7357 L110.3898,183.8505 L110.3898,190.7478 C110.3606,192.4449 110.4458,194.1477 110.6441,195.8333 z" stroke="#000000" stroke-width="0" fill="#000000" fill-opacity="1" />
  <path d="M226.6725,190.4064 L223.6932,190.4194 L223.5257,195.8333 L218.9127,195.8333 C219.0364,194.0353 219.1146,192.3723 219.076,190.716 L219.076,173.8066 C219.0979,172.0989 219.0128,170.3864 218.8217,168.6893 L226.9585,168.6893 C227.593,170.2288 228.4207,171.7014 229.4059,173.0438 L234.9047,181.3078 C235.4526,182.1224 235.9328,182.9867 236.335,183.8823 L236.1761,181.1171 L236.1761,173.7748 C236.1973,172.0777 236.1122,170.3759 235.9218,168.6893 L244.0269,168.6893 C243.8296,170.3857 243.7445,172.099 243.7726,173.8066 L243.7726,190.716 C243.7623,192.4239 243.8473,194.1349 244.0269,195.8333 L235.89,195.8333 C235.0989,194.3114 234.2165,192.8336 233.2519,191.4153 L228.1664,183.6598 L226.5135,180.7357 L226.6725,183.8505 z" stroke="#000000" stroke-width="0" fill="#000000" fill-opacity="1" />
  <path d="M199.9373,192.337 L199.2381,195.8333 L190.3384,195.8333 L191.8005,191.892 L198.5706,172.2809 C198.9997,171.113 199.3407,169.9088 199.5877,168.6893 L209.5998,168.6893 C209.8696,169.907 210.2208,171.1094 210.6487,172.2809 L217.4506,191.892 L218.8425,195.6806 L210.013,195.8333 L209.3138,192.337 L208.7099,190.1121 L200.5412,190.1121 z M204.6096,175.3005 L202.2894,183.7552 L206.9299,183.7552 z" stroke="#000000" stroke-width="0" fill="#000000" fill-opacity="1" />
</svg>